<svg width="716" height="100" viewBox="0 0 716 100" fill="none" xmlns="http://www.w3.org/2000/svg">
<g clip-path="url(#clip0_56_406)">
<path d="M43.41 87.73C67.2301 87.73 86.54 68.42 86.54 44.6C86.54 20.78 67.2301 1.47 43.41 1.47C19.59 1.47 0.280029 20.78 0.280029 44.6C0.280029 68.42 19.59 87.73 43.41 87.73Z" fill="#FC8001"/>
<path d="M43.49 3.87C38.2735 3.86413 33.118 4.99201 28.3804 7.17558C23.6429 9.35914 19.4365 12.5462 16.0524 16.5162C12.6683 20.4861 10.1875 25.1441 8.78155 30.1676C7.37564 35.1911 7.07827 40.4602 7.91002 45.61C12.57 33.44 25.29 24.7 40.27 24.7C52.78 24.7 63.72 30.79 69.7 39.89H69.81C73.2957 39.7999 76.6946 40.9839 79.37 43.22C79.47 42.13 79.52 41.03 79.52 39.91C79.52 30.3622 75.7272 21.2055 68.9759 14.4542C62.2246 7.70285 53.0678 3.91 43.52 3.91" fill="#FDCC01"/>
<path d="M79.37 43.22C76.6946 40.9839 73.2957 39.7999 69.81 39.89H69.7C59.1 39.96 47.95 49.17 44.7 60.53C43 66.58 43.9 72.02 46.7 75.79C45.63 75.89 44.53 75.95 43.43 75.95C34.8585 75.9566 26.5659 72.9046 20.0436 67.3429C13.5214 61.7813 9.19767 54.0749 7.85004 45.61C6.61151 48.8812 5.98444 52.3522 6.00004 55.85C6.0356 60.1261 6.99289 64.3442 8.80663 68.2167C10.6204 72.0893 13.2479 75.5251 16.51 78.29C21.6273 82.3658 27.6041 85.225 33.9888 86.6515C40.3735 88.0779 46.9989 88.0343 53.3642 86.5239C59.7295 85.0135 65.6682 82.0758 70.7313 77.9329C75.7944 73.79 79.8495 68.5504 82.59 62.61C82.84 61.93 83.07 61.23 83.27 60.53C85.27 53.28 83.61 46.9 79.37 43.22Z" fill="#FD0024"/>
<path d="M191.34 53.91L194.13 43.51C194.265 43.002 194.264 42.4675 194.128 41.96C193.991 41.4524 193.724 40.9897 193.352 40.618C192.98 40.2463 192.518 39.9789 192.01 39.8423C191.502 39.7058 190.968 39.705 190.46 39.84L180.06 42.62C179.555 42.7587 179.096 43.027 178.727 43.3982C178.358 43.7694 178.093 44.2306 177.957 44.7361C177.822 45.2415 177.821 45.7736 177.955 46.2795C178.089 46.7854 178.352 47.2476 178.72 47.62L186.33 55.23C186.701 55.6002 187.162 55.8669 187.668 56.0033C188.174 56.1398 188.707 56.1414 189.214 56.0079C189.721 55.8743 190.184 55.6104 190.557 55.2424C190.93 54.8743 191.2 54.4149 191.34 53.91Z" fill="#FDCC01"/>
<path d="M313.49 41.19V76.71C313.49 76.885 313.42 77.0529 313.297 77.1767C313.173 77.3005 313.005 77.37 312.83 77.37H304.53C304.357 77.3674 304.191 77.2967 304.07 77.1732C303.948 77.0497 303.88 76.8833 303.88 76.71V44.3C303.88 34.04 298.25 28.01 288.59 28.01C279.39 28.01 272.18 34.4 272.18 44.53V76.71C272.18 76.8833 272.112 77.0497 271.99 77.1732C271.869 77.2967 271.703 77.3674 271.53 77.37H263.23C263.057 77.3674 262.891 77.2967 262.77 77.1732C262.648 77.0497 262.58 76.8833 262.58 76.71V44.3C262.58 34 257 28 247.29 28C238.29 28 230.82 34.15 230.82 44.52V76.7C230.82 76.8733 230.752 77.0397 230.63 77.1632C230.509 77.2867 230.343 77.3574 230.17 77.36H221.93C221.756 77.3574 221.589 77.2871 221.466 77.1638C221.343 77.0406 221.273 76.8742 221.27 76.7V20.7C221.273 20.5267 221.343 20.3614 221.467 20.2398C221.59 20.1181 221.757 20.05 221.93 20.05H230.11C230.282 20.05 230.448 20.1185 230.57 20.2404C230.692 20.3623 230.76 20.5276 230.76 20.7V25.48C230.764 25.6102 230.807 25.7362 230.883 25.8421C230.959 25.9479 231.065 26.029 231.187 26.075C231.309 26.1209 231.441 26.1298 231.568 26.1004C231.695 26.0711 231.811 26.0048 231.9 25.91C236.47 20.72 243.05 18.91 248.99 18.91C257.99 18.91 265.14 22.73 268.99 29.12C269.047 29.2175 269.129 29.2982 269.228 29.3544C269.326 29.4105 269.437 29.44 269.55 29.44C269.663 29.44 269.774 29.4105 269.873 29.3544C269.971 29.2982 270.053 29.2175 270.11 29.12C274.8 21.45 283.03 18.91 290.29 18.91C304.06 18.93 313.49 27.83 313.49 41.19Z" fill="white"/>
<path d="M380.79 47.93C380.79 64.74 368.54 76.93 352.96 76.93C344.89 76.93 338.75 74.07 334.45 69.56C334.36 69.4654 334.243 69.4003 334.115 69.3731C333.987 69.3459 333.854 69.3579 333.733 69.4076C333.612 69.4573 333.509 69.5423 333.437 69.6516C333.365 69.7608 333.328 69.8892 333.33 70.02V98.54C333.33 98.7124 333.262 98.8777 333.14 98.9996C333.018 99.1215 332.852 99.19 332.68 99.19H324.44C324.267 99.19 324.1 99.1219 323.977 99.0002C323.853 98.8786 323.783 98.7133 323.78 98.54V20.75C323.783 20.5767 323.853 20.4114 323.977 20.2898C324.1 20.1681 324.267 20.1 324.44 20.1H332.68C332.852 20.1 333.018 20.1685 333.14 20.2904C333.262 20.4123 333.33 20.5776 333.33 20.75V25.84C333.328 25.9708 333.365 26.0991 333.437 26.2084C333.509 26.3176 333.612 26.4027 333.733 26.4524C333.854 26.502 333.987 26.5141 334.115 26.4869C334.243 26.4597 334.36 26.3946 334.45 26.3C338.75 21.79 344.89 18.93 352.96 18.93C368.54 18.93 380.79 31.12 380.79 47.93ZM332.79 47.93C332.79 59.35 340.64 67.93 351.89 67.93C363.43 67.93 370.99 58.93 370.99 47.93C370.99 36.93 363.25 27.93 351.89 27.93C340.53 27.93 332.75 36.56 332.75 47.93H332.79Z" fill="white"/>
<path d="M489 31.86C488.958 31.9373 488.9 32.0051 488.83 32.0591C488.761 32.113 488.681 32.152 488.595 32.1736C488.51 32.1952 488.421 32.1989 488.334 32.1845C488.247 32.1702 488.164 32.138 488.09 32.09C482.821 29.0151 476.841 27.3675 470.74 27.31C463.12 27.31 458.2 30.53 458.2 35.57C458.2 40.02 462.2 42.07 468.98 42.89L475.43 43.71C487.26 45.29 494.23 50.27 494.23 59.47C494.23 70.07 484.74 76.93 469.57 76.93C462.87 76.93 453.87 75.36 446.63 70.15C446.495 70.0499 446.403 69.9029 446.372 69.7381C446.34 69.5733 446.372 69.4027 446.46 69.26L450.21 63.26C450.256 63.1823 450.318 63.1153 450.393 63.0634C450.467 63.0115 450.551 62.9758 450.64 62.9588C450.728 62.9418 450.82 62.9438 450.908 62.9647C450.996 62.9856 451.078 63.0249 451.15 63.08C455.25 66.08 460.72 68.57 469.62 68.57C478.76 68.57 484.39 65.57 484.39 60.08C484.39 55.98 480.76 53.4 473.2 52.46L466.76 51.7C454.28 50.18 448.24 44.55 448.24 36.12C448.24 25.45 457.09 19.01 470.62 19.01C479.14 19.01 486.94 21.21 492.32 24.7C492.457 24.7954 492.554 24.9378 492.593 25.1C492.631 25.2623 492.609 25.4331 492.53 25.58L489 31.86Z" fill="white"/>
<path d="M537.88 31.86C537.837 31.9377 537.778 32.0056 537.708 32.0596C537.637 32.1137 537.556 32.1527 537.47 32.1743C537.384 32.1958 537.294 32.1995 537.206 32.185C537.119 32.1705 537.035 32.1382 536.96 32.09C531.692 29.0116 525.711 27.3638 519.61 27.31C511.99 27.31 507.07 30.53 507.07 35.57C507.07 40.02 511.07 42.07 517.85 42.89L524.3 43.71C536.13 45.29 543.1 50.27 543.1 59.47C543.1 70.07 533.61 76.93 518.44 76.93C511.74 76.93 502.74 75.36 495.5 70.15C495.365 70.0499 495.273 69.9029 495.242 69.7381C495.21 69.5733 495.242 69.4027 495.33 69.26L499.08 63.26C499.126 63.1823 499.189 63.1153 499.263 63.0634C499.337 63.0115 499.421 62.9758 499.51 62.9588C499.599 62.9418 499.69 62.9438 499.778 62.9647C499.866 62.9856 499.948 63.0249 500.02 63.08C504.12 66.08 509.6 68.57 518.5 68.57C527.64 68.57 533.26 65.57 533.26 60.08C533.26 55.98 529.63 53.4 522.07 52.46L515.63 51.7C503.15 50.18 497.11 44.55 497.11 36.12C497.11 25.45 505.96 19.01 519.49 19.01C528.01 19.01 535.81 21.21 541.19 24.7C541.329 24.7939 541.427 24.9363 541.466 25.0992C541.505 25.2621 541.481 25.4336 541.4 25.58L537.88 31.86Z" fill="white"/>
<path d="M144.57 62.26C144.45 62.1415 144.288 62.0751 144.12 62.0751C143.951 62.0751 143.79 62.1415 143.67 62.26C135.44 70.04 123.82 69.81 116.1 62.09C108.19 54.18 108.1 42.29 116.39 34.04C124.47 25.96 136.03 25.88 143.94 33.35C143.999 33.4099 144.069 33.4574 144.146 33.4899C144.223 33.5224 144.306 33.5391 144.39 33.5391C144.474 33.5391 144.557 33.5224 144.634 33.4899C144.711 33.4574 144.781 33.4099 144.84 33.35L150.3 27.89C150.363 27.8277 150.412 27.7537 150.446 27.6722C150.48 27.5907 150.497 27.5033 150.497 27.415C150.497 27.3267 150.48 27.2393 150.446 27.1578C150.412 27.0763 150.363 27.0023 150.3 26.94C138.38 15.49 121.01 15.6 109.48 27.13C97.7999 38.81 97.8399 56.5 109.77 68.43C121.53 80.19 138.92 80.43 150.61 69.25C150.679 69.1863 150.734 69.109 150.772 69.0229C150.81 68.9369 150.829 68.844 150.829 68.75C150.829 68.656 150.81 68.5631 150.772 68.477C150.734 68.391 150.679 68.3137 150.61 68.25L144.57 62.26Z" fill="white"/>
<path d="M164.9 47.91C165.069 47.9074 165.23 47.8392 165.35 47.7197C165.469 47.6002 165.537 47.4389 165.54 47.27C165.86 35.96 174.24 27.9 185.16 27.9C196.35 27.9 204.79 36.28 204.79 47.9C204.79 59.33 196.67 67.55 185.79 67.9C185.619 67.9026 185.457 67.9723 185.337 68.0939C185.217 68.2155 185.15 68.3793 185.15 68.55V76.26C185.15 76.4377 185.221 76.6081 185.346 76.7338C185.472 76.8594 185.642 76.93 185.82 76.93C202.36 76.6 214.56 64.23 214.56 47.93C214.56 31.4 202.02 18.93 185.15 18.93C168.52 18.93 156.04 31.05 155.69 47.22C155.689 47.3088 155.705 47.397 155.738 47.4795C155.771 47.5619 155.82 47.637 155.883 47.7002C155.945 47.7635 156.019 47.8138 156.101 47.848C156.183 47.8823 156.271 47.9 156.36 47.9L164.9 47.91Z" fill="white"/>
<path d="M440.11 20.1H431.87C431.697 20.1026 431.531 20.1733 431.41 20.2968C431.288 20.4203 431.22 20.5867 431.22 20.76V25.76C425.858 21.0203 418.926 18.4434 411.77 18.53C395.25 18.53 382.77 31.07 382.77 47.94C382.77 64.57 394.9 77.04 411.07 77.4C411.248 77.4 411.418 77.3294 411.544 77.2038C411.669 77.0781 411.74 76.9077 411.74 76.73V68.2C411.741 68.116 411.726 68.0325 411.695 67.9543C411.664 67.8762 411.618 67.8049 411.56 67.7445C411.501 67.6842 411.431 67.6359 411.354 67.6025C411.277 67.5692 411.194 67.5513 411.11 67.55C399.8 67.24 391.74 58.86 391.74 47.94C391.74 36.75 400.11 28.31 411.74 28.31C421.68 28.31 431.19 35.31 431.19 43.19V76.74C431.19 76.9133 431.258 77.0797 431.38 77.2032C431.501 77.3267 431.667 77.3974 431.84 77.4H440.08C440.254 77.3974 440.421 77.3271 440.544 77.2038C440.667 77.0806 440.737 76.9143 440.74 76.74V20.76C440.738 20.5908 440.672 20.4286 440.555 20.3062C440.438 20.1838 440.279 20.1101 440.11 20.1Z" fill="white"/>
<path d="M713.65 56.75C706.88 56.75 703.76 53.28 703.76 46.52V4.85001H683V35.79C680.615 30.6709 676.818 26.3391 672.055 23.304C667.293 20.2688 661.762 18.6565 656.115 18.6565C650.467 18.6565 644.937 20.2688 640.175 23.304C635.412 26.3391 631.615 30.6709 629.23 35.79V19.27H608.77V48.39C608.77 53.64 606.01 57.2 601.38 57.2C596.75 57.2 594 53.64 594 48.39V19.27H573.25V48.65C573.25 66.65 584.25 77.94 601.38 77.94C615.11 77.94 624.9 70.33 628.11 57.99C630.114 63.7772 633.861 68.8021 638.835 72.3746C643.81 75.9471 649.768 77.8922 655.893 77.9426C662.017 77.993 668.007 76.1463 673.039 72.6561C678.072 69.166 681.901 64.2034 684 58.45C687 71.65 697 77.5 710.44 77.5H715.69V56.75H713.65ZM656.14 57.2C654.377 57.202 652.653 56.6809 651.186 55.7026C649.719 54.7243 648.576 53.3328 647.9 51.7043C647.225 50.0758 647.047 48.2835 647.391 46.5542C647.734 44.8249 648.583 43.2364 649.83 41.9897C651.076 40.743 652.665 39.8942 654.394 39.5507C656.124 39.2073 657.916 39.3845 659.544 40.0602C661.173 40.7358 662.564 41.8793 663.543 43.3461C664.521 44.8129 665.042 46.5369 665.04 48.3C665.032 50.658 664.092 52.9172 662.424 54.5845C660.757 56.2519 658.498 57.1921 656.14 57.2Z" fill="white"/>
<path d="M556.349 75.5972C555.032 75.5972 553.901 75.1255 552.958 74.1822C552.015 73.2389 551.543 72.1087 551.543 70.7916C551.543 69.4745 552.015 68.3444 552.958 67.401C553.901 66.4577 555.032 65.9861 556.349 65.9861C557.666 65.9861 558.796 66.4577 559.739 67.401C560.682 68.3444 561.154 69.4745 561.154 70.7916C561.154 71.6637 560.932 72.4647 560.487 73.1944C560.06 73.9241 559.481 74.5115 558.751 74.9564C558.039 75.3836 557.239 75.5972 556.349 75.5972Z" fill="white"/>
</g>
<defs>
<clipPath id="clip0_56_406">
<rect width="716" height="99" fill="white" transform="translate(0 0.5)"/>
</clipPath>
</defs>
</svg>
