<svg width="24" height="19" viewBox="0 0 24 19" fill="none" xmlns="http://www.w3.org/2000/svg">
<path d="M0.075 2.8325C0.226227 2.16986 0.597983 1.57822 1.12938 1.15446C1.66078 0.730706 2.32033 0.499954 3 0.5H21C21.6797 0.499954 22.3392 0.730706 22.8706 1.15446C23.402 1.57822 23.7738 2.16986 23.925 2.8325L12 10.121L0.075 2.8325ZM0 4.5455V15.2015L8.7045 9.8645L0 4.5455ZM10.1415 10.745L0.2865 16.7855C0.52999 17.2989 0.91429 17.7326 1.39467 18.0362C1.87505 18.3397 2.43176 18.5005 3 18.5H21C21.5681 18.5001 22.1246 18.3389 22.6048 18.0351C23.0849 17.7313 23.4688 17.2975 23.712 16.784L13.857 10.7435L12 11.879L10.1415 10.7435V10.745ZM15.2955 9.866L24 15.2015V4.5455L15.2955 9.8645V9.866Z" fill="#FFCE00"/>
</svg>
